# ProBuilder 4.5.0
# https://unity3d.com/unity/features/worldbuilding/probuilder
# 4/24/2021 3:22:02 PM

mtllib ./Plane.mtl
o Plane

g Plane
v 0 0.1735406 0
v 0 0.1735406 0.125
v -0.125 0.1735406 0.125
v -0.125 0.1735406 0
v 0 0 0.25
v -0.125 0 0.25
v -0.25 0 0.25
v -0.25 0.1735406 0.125
v -0.25 0.1735406 0
v 0 0 0.375
v -0.125 0 0.375
v 0 0 0.5
v -0.125 0 0.5
v -0.25 0 0.5
v -0.25 0 0.375
v 0 0 0.625
v -0.125 0 0.625
v 0 0 0.75
v -0.125 0 0.75
v -0.25 0 0.75
v -0.25 0 0.625
v 0 0.1735406 0.8749998
v -0.125 0.1735406 0.8749998
v 0 0.1735406 0.9999998
v -0.125 0.1735406 0.9999998
v -0.25 0.1735406 0.9999998
v -0.25 0.1735406 0.8749998
v -0.375 0.1735406 0.125
v -0.375 0.1735406 0
v -0.375 0 0.25
v -0.5 0 0.25
v -0.5 0.1735406 0.125
v -0.5 0.1735406 0
v -0.375 0 0.375
v -0.375 0 0.5
v -0.5 0 0.5
v -0.5 0 0.375
v -0.375 0 0.625
v -0.375 0 0.75
v -0.5 0 0.75
v -0.5 0 0.625
v -0.375 0.1735406 0.8749998
v -0.375 0.1735406 0.9999998
v -0.5 0.1735406 0.9999998
v -0.5 0.1735406 0.8749998
v -0.625 0.1735406 0.125
v -0.625 0.1735406 0
v -0.625 0 0.25
v -0.75 0 0.25
v -0.75 0.1735406 0.125
v -0.75 0.1735406 0
v -0.625 0 0.375
v -0.625 0 0.5
v -0.75 0 0.5
v -0.75 0 0.375
v -0.625 0 0.625
v -0.625 0 0.75
v -0.75 0 0.75
v -0.75 0 0.625
v -0.625 0.1735406 0.8749998
v -0.625 0.1735406 0.9999998
v -0.75 0.1735406 0.9999998
v -0.75 0.1735406 0.8749998
v -0.875 0.1735406 0.125
v -0.875 0.1735406 0
v -0.875 0 0.25
v -1 0 0.25
v -1 0.1735406 0.125
v -1 0.1735406 0
v -0.875 0 0.375
v -0.875 0 0.5
v -1 0 0.5
v -1 0 0.375
v -0.875 0 0.625
v -0.875 0 0.75
v -1 0 0.75
v -1 0 0.625
v -0.875 0.1735406 0.8749998
v -0.875 0.1735406 0.9999998
v -1 0.1735406 0.9999998
v -1 0.1735406 0.8749998

vt 0 -0.07910284
vt 0 0.03215633
vt 0.125 0.03215633
vt 0.125 -0.07910284
vt 0 0.2225183
vt 0.125 0.2225183
vt 0.25 0.2225183
vt 0.25 0.03215633
vt 0.25 -0.07910284
vt 0 0.25
vt 0 0.375
vt 0.125 0.375
vt 0.125 0.25
vt 0 0.5
vt 0.125 0.5
vt 0.25 0.5
vt 0.25 0.375
vt 0.25 0.25
vt 0 0.625
vt 0.125 0.625
vt 0 0.75
vt 0.125 0.75
vt 0.25 0.75
vt 0.25 0.625
vt 0 0.6675548
vt 0 0.8579166
vt 0.125 0.8579166
vt 0.125 0.6675548
vt 0 0.9691758
vt 0.125 0.9691758
vt 0.25 0.9691758
vt 0.25 0.8579166
vt 0.25 0.6675548
vt 0.375 0.03215633
vt 0.375 -0.07910284
vt 0.375 0.2225183
vt 0.5 0.2225183
vt 0.5 0.03215633
vt 0.5 -0.07910284
vt 0.375 0.375
vt 0.375 0.25
vt 0.375 0.5
vt 0.5 0.5
vt 0.5 0.375
vt 0.5 0.25
vt 0.375 0.625
vt 0.375 0.75
vt 0.5 0.75
vt 0.5 0.625
vt 0.375 0.8579166
vt 0.375 0.6675548
vt 0.375 0.9691758
vt 0.5 0.9691758
vt 0.5 0.8579166
vt 0.5 0.6675548
vt 0.625 0.03215633
vt 0.625 -0.07910284
vt 0.625 0.2225183
vt 0.75 0.2225183
vt 0.75 0.03215633
vt 0.75 -0.07910284
vt 0.625 0.375
vt 0.625 0.25
vt 0.625 0.5
vt 0.75 0.5
vt 0.75 0.375
vt 0.75 0.25
vt 0.625 0.625
vt 0.625 0.75
vt 0.75 0.75
vt 0.75 0.625
vt 0.625 0.8579166
vt 0.625 0.6675548
vt 0.625 0.9691758
vt 0.75 0.9691758
vt 0.75 0.8579166
vt 0.75 0.6675548
vt 0.875 0.03215633
vt 0.875 -0.07910284
vt 0.875 0.2225183
vt 1 0.2225183
vt 1 0.03215633
vt 1 -0.07910284
vt 0.875 0.375
vt 0.875 0.25
vt 0.875 0.5
vt 1 0.5
vt 1 0.375
vt 1 0.25
vt 0.875 0.625
vt 0.875 0.75
vt 1 0.75
vt 1 0.625
vt 0.875 0.8579166
vt 0.875 0.6675548
vt 0.875 0.9691758
vt 1 0.9691758
vt 1 0.8579166
vt 1 0.6675548

vn 0 1 0
vn 0 0.584461 0.8114218
vn 0 0.5844603 -0.8114223

usemtl ProBuilderDefault
f 3/3/1 2/2/1 1/1/1 4/4/1
f 6/6/2 5/5/2 2/2/2 3/3/2
f 7/7/2 6/6/2 3/3/2 8/8/2
f 8/8/1 3/3/1 4/4/1 9/9/1
f 11/12/1 10/11/1 5/10/1 6/13/1
f 13/15/1 12/14/1 10/11/1 11/12/1
f 14/16/1 13/15/1 11/12/1 15/17/1
f 15/17/1 11/12/1 6/13/1 7/18/1
f 17/20/1 16/19/1 12/14/1 13/15/1
f 19/22/1 18/21/1 16/19/1 17/20/1
f 20/23/1 19/22/1 17/20/1 21/24/1
f 21/24/1 17/20/1 13/15/1 14/16/1
f 23/27/3 22/26/3 18/25/3 19/28/3
f 25/30/1 24/29/1 22/26/1 23/27/1
f 26/31/1 25/30/1 23/27/1 27/32/1
f 27/32/3 23/27/3 19/28/3 20/33/3
f 28/34/1 8/8/1 9/9/1 29/35/1
f 30/36/2 7/7/2 8/8/2 28/34/2
f 31/37/2 30/36/2 28/34/2 32/38/2
f 32/38/1 28/34/1 29/35/1 33/39/1
f 34/40/1 15/17/1 7/18/1 30/41/1
f 35/42/1 14/16/1 15/17/1 34/40/1
f 36/43/1 35/42/1 34/40/1 37/44/1
f 37/44/1 34/40/1 30/41/1 31/45/1
f 38/46/1 21/24/1 14/16/1 35/42/1
f 39/47/1 20/23/1 21/24/1 38/46/1
f 40/48/1 39/47/1 38/46/1 41/49/1
f 41/49/1 38/46/1 35/42/1 36/43/1
f 42/50/3 27/32/3 20/33/3 39/51/3
f 43/52/1 26/31/1 27/32/1 42/50/1
f 44/53/1 43/52/1 42/50/1 45/54/1
f 45/54/3 42/50/3 39/51/3 40/55/3
f 46/56/1 32/38/1 33/39/1 47/57/1
f 48/58/2 31/37/2 32/38/2 46/56/2
f 49/59/2 48/58/2 46/56/2 50/60/2
f 50/60/1 46/56/1 47/57/1 51/61/1
f 52/62/1 37/44/1 31/45/1 48/63/1
f 53/64/1 36/43/1 37/44/1 52/62/1
f 54/65/1 53/64/1 52/62/1 55/66/1
f 55/66/1 52/62/1 48/63/1 49/67/1
f 56/68/1 41/49/1 36/43/1 53/64/1
f 57/69/1 40/48/1 41/49/1 56/68/1
f 58/70/1 57/69/1 56/68/1 59/71/1
f 59/71/1 56/68/1 53/64/1 54/65/1
f 60/72/3 45/54/3 40/55/3 57/73/3
f 61/74/1 44/53/1 45/54/1 60/72/1
f 62/75/1 61/74/1 60/72/1 63/76/1
f 63/76/3 60/72/3 57/73/3 58/77/3
f 64/78/1 50/60/1 51/61/1 65/79/1
f 66/80/2 49/59/2 50/60/2 64/78/2
f 67/81/2 66/80/2 64/78/2 68/82/2
f 68/82/1 64/78/1 65/79/1 69/83/1
f 70/84/1 55/66/1 49/67/1 66/85/1
f 71/86/1 54/65/1 55/66/1 70/84/1
f 72/87/1 71/86/1 70/84/1 73/88/1
f 73/88/1 70/84/1 66/85/1 67/89/1
f 74/90/1 59/71/1 54/65/1 71/86/1
f 75/91/1 58/70/1 59/71/1 74/90/1
f 76/92/1 75/91/1 74/90/1 77/93/1
f 77/93/1 74/90/1 71/86/1 72/87/1
f 78/94/3 63/76/3 58/77/3 75/95/3
f 79/96/1 62/75/1 63/76/1 78/94/1
f 80/97/1 79/96/1 78/94/1 81/98/1
f 81/98/3 78/94/3 75/95/3 76/99/3

